<svg width="723" height="196" viewBox="0 0 723 196" fill="none" xmlns="http://www.w3.org/2000/svg">
<path d="M182.875 194V143.797L198.414 126.664L252.303 194H275.213L210.865 113.914L269.934 50.2637H247.322L183.871 120.389H182.875V50.2637H164.945V194H182.875ZM324.719 195.793C353.307 195.793 372.631 175.174 372.631 142.203C372.631 109.133 353.307 88.6133 324.719 88.6133C296.031 88.6133 276.707 109.133 276.707 142.203C276.707 175.174 296.031 195.793 324.719 195.793ZM324.719 180.553C306.391 180.553 294.338 166.607 294.338 142.203C294.338 117.799 306.391 103.854 324.719 103.854C343.047 103.854 355 117.799 355 142.203C355 166.607 343.047 180.553 324.719 180.553ZM420.443 195.793C434.389 195.793 447.537 188.023 453.713 176.17H454.111V194H470.547V122.381C470.547 101.762 455.207 88.6133 430.902 88.6133C406.398 88.6133 391.059 102.359 389.863 120.289H406.598C408.789 110.129 417.156 103.854 430.504 103.854C444.848 103.854 453.215 111.424 453.215 124.074V132.74L423.531 134.434C399.625 135.828 385.979 146.984 385.979 164.715C385.979 183.342 399.824 195.793 420.443 195.793ZM424.328 181.051C411.877 181.051 403.609 174.576 403.609 164.715C403.609 154.953 411.578 148.777 425.523 147.881L453.215 146.188V154.654C453.215 169.596 440.664 181.051 424.328 181.051ZM493.457 194H510.789V50.2637H493.457V194ZM564.479 195.793C578.424 195.793 591.572 188.023 597.748 176.17H598.146V194H614.582V122.381C614.582 101.762 599.242 88.6133 574.938 88.6133C550.434 88.6133 535.094 102.359 533.898 120.289H550.633C552.824 110.129 561.191 103.854 574.539 103.854C588.883 103.854 597.25 111.424 597.25 124.074V132.74L567.566 134.434C543.66 135.828 530.014 146.984 530.014 164.715C530.014 183.342 543.859 195.793 564.479 195.793ZM568.363 181.051C555.912 181.051 547.645 174.576 547.645 164.715C547.645 154.953 555.613 148.777 569.559 147.881L597.25 146.188V154.654C597.25 169.596 584.699 181.051 568.363 181.051ZM634.803 118.994C634.803 133.936 644.266 143 663.789 147.682L680.225 151.666C692.078 154.555 696.162 158.838 696.162 166.309C696.162 175.672 687.496 181.648 673.451 181.648C659.406 181.648 651.438 175.971 649.346 164.117H632.014C634.006 183.541 649.146 195.793 673.451 195.793C696.561 195.793 713.594 183.043 713.594 165.014C713.594 150.172 706.023 142.004 685.105 136.924L668.67 132.939C657.115 130.15 651.836 125.27 651.836 118.098C651.836 109.033 660.203 102.758 672.854 102.758C685.604 102.758 693.572 109.432 694.867 120.289H711.402C710.705 101.961 695.564 88.6133 672.854 88.6133C650.441 88.6133 634.803 101.264 634.803 118.994Z" fill="#8B8A92"/>
<rect x="79" y="167" width="24" height="27" fill="#C4C4C4"/>
<rect x="79" y="165" width="24" height="8" fill="#947689"/>
<g filter="url(#filter0_d)">
<rect x="79" y="109" width="24" height="56" fill="#202A2D"/>
<rect x="79" y="109" width="24" height="56" fill="url(#paint0_linear)"/>
</g>
<rect y="50" width="24" height="144" fill="#8B8A92"/>
<rect x="160" y="50" width="24" height="144" fill="#8B8A92"/>
<rect x="40" y="50" width="24" height="44" fill="#C4C4C4"/>
<rect x="40" y="50" width="24" height="44" fill="#C4C4C4"/>
<rect x="120" y="50" width="24" height="44" fill="#C4C4C4"/>
<rect x="120" y="110" width="24" height="16" fill="#302214"/>
<rect x="120" y="142" width="24" height="52" fill="#C4C4C4"/>
<rect x="40" y="110" width="24" height="16" fill="#302214"/>
<rect x="40" y="142" width="24" height="52" fill="#C4C4C4"/>
<rect x="80" y="50" width="24" height="44" fill="#C4C4C4"/>
<defs>
<filter id="filter0_d" x="74" y="109" width="34" height="66" filterUnits="userSpaceOnUse" color-interpolation-filters="sRGB">
<feFlood flood-opacity="0" result="BackgroundImageFix"/>
<feColorMatrix in="SourceAlpha" type="matrix" values="0 0 0 0 0 0 0 0 0 0 0 0 0 0 0 0 0 0 127 0"/>
<feOffset dy="5"/>
<feGaussianBlur stdDeviation="2.5"/>
<feColorMatrix type="matrix" values="0 0 0 0 0 0 0 0 0 0 0 0 0 0 0 0 0 0 0.25 0"/>
<feBlend mode="normal" in2="BackgroundImageFix" result="effect1_dropShadow"/>
<feBlend mode="normal" in="SourceGraphic" in2="effect1_dropShadow" result="shape"/>
</filter>
<linearGradient id="paint0_linear" x1="91" y1="72.6" x2="91" y2="165" gradientUnits="userSpaceOnUse">
<stop stop-color="white"/>
<stop offset="1" stop-color="white" stop-opacity="0"/>
</linearGradient>
</defs>
</svg>
